<?xml version="1.0" standalone="no"?>
<!DOCTYPE svg PUBLIC "-//W3C//DTD SVG 20010904//EN"
 "http://www.w3.org/TR/2001/REC-SVG-20010904/DTD/svg10.dtd">
<svg version="1.0" xmlns="http://www.w3.org/2000/svg"
 width="799.000000pt" height="782.000000pt" viewBox="0 0 799.000000 782.000000"
 preserveAspectRatio="xMidYMid meet">

<g transform="translate(0.000000,782.000000) scale(0.100000,-0.100000)"
fill="#000000" stroke="none">
<path d="M3695 7504 c-257 -20 -584 -81 -812 -150 -409 -124 -824 -340 -1166
-605 -576 -449 -999 -1047 -1231 -1743 -81 -241 -143 -542 -167 -805 -26 -289
1 -757 61 -1046 181 -878 674 -1654 1393 -2191 352 -263 735 -454 1157 -578
575 -169 1214 -189 1800 -56 844 190 1596 675 2113 1364 378 502 615 1076 701
1691 41 298 41 611 0 945 -86 695 -381 1366 -833 1895 -346 405 -740 708
-1210 933 -360 172 -682 267 -1096 323 -145 20 -575 33 -710 23z m-54 -1274
c21 -12 26 -45 8 -56 -7 -4 -48 -8 -92 -10 -96 -4 -178 -24 -249 -60 -60 -31
-157 -119 -183 -168 l-18 -34 43 -49 42 -50 172 -7 c349 -13 661 -52 800 -98
69 -23 126 -64 126 -90 0 -8 -38 -69 -85 -137 -47 -67 -85 -124 -85 -127 0 -2
201 -4 446 -4 l446 0 -6 28 c-24 107 -28 146 -22 223 19 276 201 510 461 592
101 32 300 32 400 0 98 -31 187 -86 271 -169 58 -57 81 -89 117 -165 96 -198
100 -383 12 -574 -106 -230 -336 -384 -576 -385 l-66 0 -33 -92 c-145 -417
-405 -673 -745 -733 -48 -8 -102 -15 -119 -15 -24 0 -38 -9 -60 -36 -16 -20
-43 -42 -61 -50 -40 -16 -40 -18 -56 -304 -27 -495 8 -965 92 -1225 44 -138
54 -151 129 -159 179 -20 390 -103 453 -177 167 -194 -157 -376 -703 -396
-279 -10 -553 29 -721 101 -13 6 -18 0 -23 -29 -22 -117 -215 -208 -541 -257
-143 -21 -493 -16 -635 10 -214 39 -350 92 -424 166 -74 74 -71 151 8 224 49
45 81 64 172 98 63 23 230 61 293 66 41 3 53 20 90 129 91 268 128 716 101
1219 -16 306 -18 320 -49 331 -68 26 -122 116 -137 230 -6 41 -20 71 -69 143
-34 50 -138 204 -232 341 -93 138 -217 320 -275 405 -141 208 -379 558 -441
649 -49 70 -50 74 -36 99 48 87 365 149 861 169 166 6 168 6 185 32 72 111
243 170 370 127 31 -11 49 -13 51 -6 2 6 24 38 49 71 53 70 126 128 203 162
48 21 80 30 185 51 42 8 137 6 156 -4z"/>
<path d="M5540 6134 c-349 -68 -565 -426 -459 -761 10 -31 13 -33 61 -33 44 0
49 2 43 18 -59 140 -44 334 35 452 114 173 300 260 492 232 248 -36 428 -242
428 -489 0 -257 -187 -467 -443 -498 -51 -7 -58 -10 -63 -34 -3 -14 -8 -34
-11 -43 -10 -41 170 -12 283 44 204 102 328 303 326 532 -1 253 -158 472 -398
557 -58 20 -235 34 -294 23z"/>
<path d="M5548 5964 c-111 -26 -200 -91 -264 -190 -70 -108 -84 -266 -34 -382
22 -51 23 -52 66 -52 36 0 53 8 110 51 103 78 144 112 144 119 0 4 -64 10
-142 14 -102 5 -147 11 -157 21 -7 7 -16 36 -19 63 -3 40 0 59 19 92 24 42 73
80 105 80 10 0 65 -46 123 -102 79 -77 106 -109 106 -128 0 -14 8 -32 19 -41
17 -14 18 -19 4 -87 -8 -40 -12 -74 -10 -77 3 -3 13 -5 23 -5 30 0 39 -31 29
-101 -5 -35 -10 -76 -10 -90 0 -26 1 -26 49 -18 27 4 68 16 91 26 l42 18 -46
0 c-25 0 -50 5 -56 11 -11 11 -90 278 -90 305 0 9 7 19 15 23 11 4 14 13 10
29 -5 20 10 40 105 130 76 73 119 107 134 107 13 0 43 -17 67 -38 42 -38 43
-41 47 -108 1 -38 -2 -75 -7 -83 -11 -17 -106 -30 -223 -30 -43 -1 -78 -4 -78
-8 1 -5 51 -42 112 -83 62 -41 116 -82 121 -91 7 -11 2 -31 -17 -70 l-27 -54
36 35 c72 69 125 194 125 294 0 62 -22 151 -51 208 -52 103 -182 198 -290 213
l-44 7 39 -24 c22 -13 44 -30 49 -39 13 -20 -90 -297 -116 -313 -28 -17 -46
12 -101 164 -36 99 -46 137 -39 149 16 26 74 55 123 62 l45 6 -40 1 c-22 0
-66 -6 -97 -14z"/>
<path d="M2821 5889 c-54 -16 -108 -58 -142 -111 -26 -41 -33 -62 -37 -121 -3
-52 0 -83 11 -110 l16 -37 230 0 230 0 16 52 c8 28 15 63 15 78 0 47 -28 124
-59 160 l-29 35 -10 -25 c-26 -69 -26 -70 11 -70 38 0 61 -19 55 -47 -5 -27
-76 -39 -135 -23 -83 24 -157 120 -120 157 22 22 51 8 71 -33 9 -20 20 -34 23
-30 4 4 15 31 24 60 l16 54 -43 11 c-51 13 -96 13 -143 0z"/>
<path d="M2410 5724 c-343 -23 -492 -40 -641 -75 -48 -11 -95 -26 -105 -34
-17 -12 -14 -15 36 -29 113 -33 360 -57 726 -71 l162 -7 -14 59 c-8 34 -11 79
-7 111 l6 52 -59 -2 c-33 -1 -79 -3 -104 -4z"/>
<path d="M3225 5654 c0 -44 -4 -94 -8 -112 l-9 -33 169 6 c391 14 655 39 777
72 l58 16 -26 14 c-84 44 -400 85 -841 109 l-120 6 0 -78z"/>
<path d="M4090 5498 c-106 -23 -601 -58 -831 -58 -95 0 -98 -1 -122 -29 -14
-17 -40 -40 -58 -51 l-34 -22 230 6 c305 8 540 31 738 73 65 13 81 21 98 45
27 37 22 46 -21 36z"/>
<path d="M1730 5494 c0 -3 9 -18 20 -33 16 -23 34 -31 97 -44 186 -39 421 -64
703 -73 188 -6 194 -5 170 11 -14 10 -41 33 -60 50 l-35 33 -215 6 c-225 7
-523 30 -611 46 -60 12 -69 12 -69 4z"/>
<path d="M2750 5430 c0 -19 66 -43 130 -48 53 -3 76 0 118 18 29 12 52 26 52
31 0 5 -67 9 -150 9 -91 0 -150 -4 -150 -10z"/>
<path d="M1840 5334 c0 -17 154 -229 211 -289 86 -91 263 -283 418 -454 68
-75 127 -138 130 -141 3 -3 48 -51 99 -106 101 -111 125 -124 232 -124 107 0
131 13 233 124 51 55 208 225 347 376 139 151 279 303 311 337 58 62 204 271
196 279 -3 3 -46 -2 -96 -11 -474 -82 -1504 -82 -1981 0 -96 17 -100 17 -100
9z"/>
<path d="M4047 5238 c-39 -54 -77 -112 -77 -120 0 -5 362 -8 804 -8 l804 0 5
33 c3 17 9 53 13 80 l6 47 -765 0 -766 0 -24 -32z"/>
<path d="M3863 4968 c-160 -233 -336 -494 -340 -505 -3 -7 35 -52 84 -101 141
-143 281 -210 479 -233 125 -14 122 -13 142 -48 19 -33 60 -61 91 -61 13 0 25
-9 30 -22 32 -87 49 -892 23 -1123 -39 -344 -101 -563 -198 -698 -41 -57 -44
-51 56 -100 63 -31 69 -32 190 -32 132 1 176 12 251 66 l29 21 -24 28 c-92
111 -162 325 -202 621 -22 168 -30 702 -14 947 19 287 16 278 85 298 18 6 40
26 57 50 l27 41 84 6 c320 25 554 196 712 522 60 122 114 273 130 358 l7 37
-824 0 -825 0 -50 -72z m663 -2818 c26 -10 26 -12 11 -28 -29 -29 -247 -21
-247 9 0 5 10 14 23 19 31 12 180 12 213 0z"/>
<path d="M2299 4655 c6 -11 54 -83 107 -160 53 -77 137 -200 187 -273 65 -97
94 -131 106 -128 36 11 177 26 239 26 60 0 158 -11 219 -25 19 -4 45 30 210
272 209 308 206 303 200 303 -3 0 -69 -71 -148 -157 -286 -312 -307 -332 -362
-348 -65 -19 -189 -19 -255 0 -48 15 -65 30 -234 213 -238 256 -282 301 -269
277z"/>
<path d="M3462 4378 c-5 -7 -35 -50 -66 -95 -31 -46 -80 -118 -109 -161 -42
-60 -55 -90 -61 -131 -15 -113 -69 -204 -137 -230 -31 -11 -33 -24 -50 -366
-17 -350 1 -729 47 -970 17 -91 79 -295 97 -319 8 -10 52 -23 127 -36 63 -12
152 -34 198 -50 81 -28 82 -28 82 -8 0 34 46 102 87 131 82 56 276 119 412
133 62 7 62 7 85 53 46 89 93 283 116 471 30 248 32 704 4 1062 -7 85 -7 87
-38 99 -17 7 -46 29 -64 48 -31 34 -39 37 -125 48 -203 25 -354 100 -502 245
-49 48 -90 88 -91 88 -1 0 -6 -6 -12 -12z"/>
<path d="M2710 3968 c0 -3 5 -20 11 -39 19 -57 56 -97 94 -105 19 -3 38 -11
43 -18 30 -38 53 -760 33 -1037 -28 -373 -96 -636 -207 -791 l-34 -48 38 -25
c71 -47 119 -59 242 -59 97 -1 124 3 172 22 31 13 68 32 82 43 l25 20 -43 63
c-104 152 -168 408 -197 786 -19 257 1 946 31 1016 5 14 21 24 43 28 18 3 43
16 55 29 20 21 56 106 49 114 -2 2 -26 -7 -53 -19 -36 -16 -74 -23 -144 -26
-92 -4 -134 4 -222 43 -10 4 -18 5 -18 3z m334 -2021 c19 -9 19 -10 2 -23 -28
-20 -121 -28 -183 -15 -65 13 -71 17 -55 33 26 26 189 30 236 5z"/>
<path d="M4001 2188 c-108 -22 -234 -69 -276 -102 l-29 -23 48 -28 c243 -142
836 -174 1194 -63 70 21 176 71 186 86 20 32 -149 103 -323 136 l-73 14 26
-27 c36 -37 33 -63 -14 -104 -146 -133 -416 -149 -600 -36 -55 34 -95 82 -84
101 4 7 16 23 27 35 11 13 19 25 16 27 -2 2 -46 -5 -98 -16z"/>
<path d="M2495 1985 c-159 -37 -288 -96 -271 -124 22 -35 185 -95 351 -128
130 -26 579 -26 710 0 172 34 341 99 352 134 5 15 -98 68 -184 94 -72 23 -203
49 -203 42 0 -3 11 -18 25 -35 31 -36 31 -39 1 -71 -39 -42 -116 -86 -189
-108 -100 -31 -265 -24 -360 15 -61 26 -167 105 -167 126 0 5 11 22 25 38 42
50 45 49 -90 17z"/>
</g>
</svg>
