<?xml version="1.0" standalone="no"?>
<!DOCTYPE svg PUBLIC "-//W3C//DTD SVG 20010904//EN"
 "http://www.w3.org/TR/2001/REC-SVG-20010904/DTD/svg10.dtd">
<svg version="1.0" xmlns="http://www.w3.org/2000/svg"
 width="1734.000000pt" height="548.000000pt" viewBox="0 0 1734.000000 548.000000"
 preserveAspectRatio="xMidYMid meet">

<g transform="translate(0.000000,548.000000) scale(0.100000,-0.100000)"
fill="#000000" stroke="none">
<path d="M7220 3853 c-8 -3 -67 -37 -130 -76 -278 -170 -423 -213 -547 -161
-33 13 -44 39 -21 46 7 3 8 10 3 17 -12 20 -89 8 -134 -22 -44 -30 -71 -79
-71 -134 0 -116 150 -192 329 -166 96 14 172 42 250 93 l62 40 -92 -132 c-50
-73 -144 -213 -208 -311 l-116 -179 -170 6 c-93 3 -186 9 -206 12 -32 5 -38 3
-44 -15 -11 -36 30 -152 65 -186 29 -28 38 -30 116 -34 46 -1 84 -7 84 -11 0
-5 -76 -123 -168 -263 -177 -267 -239 -377 -249 -439 -9 -57 6 -68 93 -68 40
0 76 -4 79 -10 13 -21 46 -9 72 28 16 21 125 201 243 400 l215 361 394 1 393
0 -14 -22 c-32 -49 -280 -463 -324 -541 -136 -238 -132 -256 54 -238 58 6 109
14 113 19 4 4 107 174 229 377 284 470 449 735 716 1148 120 185 214 341 214
354 0 38 -36 52 -138 54 -68 1 -98 -3 -116 -14 -27 -18 -58 -65 -365 -548
l-219 -344 -278 -7 c-154 -5 -329 -7 -391 -5 l-112 2 180 275 c246 375 389
601 389 614 0 6 -16 28 -35 49 -30 33 -39 37 -82 36 -26 0 -55 -3 -63 -6z"/>
<path d="M13336 3815 c-370 -60 -736 -251 -820 -429 -19 -40 -21 -124 -4 -161
33 -72 161 -88 235 -28 47 38 57 67 19 57 -44 -11 -33 29 21 75 108 92 354
203 536 241 195 42 432 36 536 -13 70 -33 98 -101 70 -174 -40 -107 -268 -277
-524 -392 -117 -52 -313 -123 -327 -119 -4 2 40 77 98 168 178 277 256 409
252 427 -3 15 -15 19 -70 21 -92 4 -145 -12 -187 -56 -40 -43 -233 -335 -458
-692 -280 -445 -414 -686 -428 -767 -16 -97 74 -169 168 -134 18 7 44 46 93
136 l69 126 5 -39 c8 -53 29 -83 86 -120 210 -140 592 -110 912 69 103 59 256
210 297 294 37 77 45 170 20 246 -36 108 -187 216 -339 242 -36 6 -66 14 -66
17 0 3 33 18 73 34 249 98 476 276 554 433 35 71 38 84 38 163 0 73 -4 93 -28
141 -52 107 -171 186 -337 224 -104 24 -375 29 -494 10z m-373 -1190 l22 -26
45 17 c65 25 344 26 451 1 83 -19 171 -67 202 -109 43 -57 -11 -150 -145 -249
-148 -110 -290 -159 -459 -160 -111 -1 -172 14 -200 49 -32 41 -22 72 37 109
16 10 17 13 4 22 -37 26 -153 6 -209 -37 l-35 -26 34 60 c73 129 221 374 226
374 3 0 15 -11 27 -25z"/>
<path d="M10405 2971 c-151 -44 -268 -133 -494 -376 l-93 -100 58 80 c73 100
103 172 104 247 0 46 -5 62 -25 87 -32 37 -84 55 -133 46 -92 -16 -275 -136
-431 -282 l-85 -78 92 115 c51 63 101 134 113 158 23 46 20 86 -7 96 -24 9
-151 -21 -184 -44 -31 -22 -132 -177 -250 -381 -101 -175 -291 -566 -297 -610
-7 -46 17 -64 95 -73 53 -7 55 -6 90 31 19 21 68 87 107 148 40 60 100 146
134 190 126 163 370 416 461 478 32 22 79 22 87 0 8 -19 -43 -121 -153 -308
-194 -331 -274 -473 -274 -488 0 -32 108 -67 163 -53 17 4 68 62 155 173 263
339 689 759 728 720 4 -4 -16 -40 -44 -80 -186 -259 -262 -386 -301 -507 -67
-203 30 -342 240 -343 70 -1 85 3 151 36 40 20 91 52 112 70 l39 33 47 -46
c73 -74 136 -94 295 -94 110 -1 140 3 199 22 137 46 286 133 377 221 l49 47 0
81 c0 59 -4 84 -15 93 -20 16 -26 13 -125 -66 -120 -95 -241 -172 -307 -196
-70 -24 -193 -27 -246 -5 -69 30 -77 91 -18 148 48 45 207 144 276 172 27 12
69 34 93 49 51 35 56 70 16 117 -31 37 -61 39 -152 11 -68 -21 -132 -26 -132
-10 0 35 155 157 278 219 l62 31 0 -39 c0 -49 19 -65 69 -58 83 11 158 66 192
142 37 82 22 126 -52 150 -44 15 -63 16 -135 7 -237 -31 -504 -185 -578 -335
-21 -42 -26 -65 -26 -130 0 -77 1 -80 34 -113 l35 -35 -57 -26 c-31 -14 -65
-27 -74 -28 -9 -1 -58 -40 -110 -87 -163 -150 -246 -196 -304 -169 -20 9 -24
18 -24 56 0 61 28 114 215 411 234 370 245 396 181 460 -32 32 -38 34 -97 33
-35 0 -91 -8 -124 -18z"/>
<path d="M15607 2959 c-71 -14 -118 -49 -164 -120 -36 -58 -321 -536 -387
-651 -47 -81 -161 -168 -220 -168 -57 0 -58 74 -6 232 36 109 170 386 229 473
71 106 51 165 -56 165 -44 0 -58 -5 -88 -31 l-35 -31 -35 30 c-41 37 -83 46
-178 40 -173 -12 -412 -163 -586 -370 -141 -166 -216 -391 -182 -536 23 -95
115 -171 208 -172 102 0 255 91 406 243 56 56 95 88 90 75 -4 -13 -8 -62 -8
-110 0 -80 2 -89 30 -129 61 -86 164 -106 285 -54 70 29 74 30 136 20 47 -8
26 -28 215 210 156 198 618 655 661 655 4 0 -8 -23 -27 -51 -47 -69 -70 -149
-56 -191 6 -18 19 -40 28 -50 18 -20 73 -24 103 -8 11 6 56 65 101 133 149
222 170 298 104 364 -35 35 -36 35 -108 31 -126 -6 -246 -77 -425 -252 l-84
-81 51 78 c91 141 122 224 95 251 -17 18 -27 18 -97 5z m-868 -331 c-128 -176
-170 -227 -265 -318 -184 -177 -317 -279 -349 -266 -26 10 -18 76 19 153 99
205 281 399 464 492 51 26 135 49 180 50 l32 1 -81 -112z"/>
<path d="M8540 2944 c-202 -54 -484 -303 -598 -529 -61 -122 -84 -200 -89
-312 -5 -96 -4 -106 21 -156 58 -119 189 -151 359 -87 83 31 231 134 321 224
382 380 517 806 254 806 -33 0 -46 5 -56 21 -29 47 -112 60 -212 33z m92 -186
c2 -14 15 -29 35 -38 25 -11 33 -21 33 -42 1 -94 -203 -391 -359 -523 -167
-141 -291 -165 -291 -56 1 125 113 325 272 483 74 73 131 115 223 165 71 39
83 40 87 11z"/>
</g>
</svg>
